HIERARCHY
ROOT hip
{
	OFFSET 0.000000 0.000000 0.000000 
	CHANNELS 6 Xposition Yposition Zposition Xrotation Zrotation Yrotation
	JOINT abdomen
	{
		OFFSET 0.000000 3.402643 0.000000 
		CHANNELS 3 Xrotation Zrotation Yrotation
		JOINT chest
		{
			OFFSET 0.000000 8.438565 -0.680529 
			CHANNELS 3 Xrotation Zrotation Yrotation
			JOINT neck
			{
				OFFSET 0.000000 10.207942 -0.272212 
				CHANNELS 3 Xrotation Zrotation Yrotation
				JOINT head
				{
					OFFSET 0.000000 3.130431 0.000000 
					CHANNELS 3 Xrotation Zrotation Yrotation
					End Site
					{
						OFFSET 0.000000 3.130435 0.000000 
					}
				}
			}
			JOINT lCollar
			{
				OFFSET 3.470700 6.669187 -0.816635 
				CHANNELS 3 Yrotation Zrotation Xrotation
				JOINT lShldr
				{
					OFFSET 3.198488 0.000000 0.000000 
					CHANNELS 3 Zrotation Yrotation Xrotation
					JOINT lForeArm
					{
						OFFSET 10.139888 0.000000 0.000000 
						CHANNELS 3 Yrotation Zrotation Xrotation
						JOINT lHand
						{
							OFFSET 8.370511 0.000000 0.000000 
							CHANNELS 3 Zrotation Yrotation Xrotation
							End Site
							{
								OFFSET 4.083176 0.000000 0.000000 
							}
						}
					}
				}
			}
			JOINT rCollar
			{
				OFFSET -3.470700 6.669187 -0.816635 
				CHANNELS 3 Yrotation Zrotation Xrotation
				JOINT rShldr
				{
					OFFSET -3.198488 0.000000 0.000000 
					CHANNELS 3 Zrotation Yrotation Xrotation
					JOINT rForeArm
					{
						OFFSET -10.139888 0.000000 0.000000 
						CHANNELS 3 Yrotation Zrotation Xrotation
						JOINT rHand
						{
							OFFSET -8.370511 0.000000 0.000000 
							CHANNELS 3 Zrotation Yrotation Xrotation
							End Site
							{
								OFFSET -4.083176 0.000000 0.000000 
							}
						}
					}
				}
			}
		}
	}
	JOINT lThigh
	{
		OFFSET 5.308129 -1.633274 1.361059 
		CHANNELS 3 Xrotation Zrotation Yrotation
		JOINT lShin
		{
			OFFSET -2.041588 -20.007561 0.000000 
			CHANNELS 3 Xrotation Zrotation Yrotation
			JOINT lFoot
			{
				OFFSET 0.000000 -19.190928 -1.224953 
				CHANNELS 3 Xrotation Yrotation Zrotation
				End Site
				{
					OFFSET 0.000000 -2.449906 4.627600 
				}
			}
		}
	}
	JOINT rThigh
	{
		OFFSET -5.308129 -1.633274 1.361059 
		CHANNELS 3 Xrotation Zrotation Yrotation
		JOINT rShin
		{
			OFFSET 2.041588 -20.007561 0.000000 
			CHANNELS 3 Xrotation Zrotation Yrotation
			JOINT rFoot
			{
				OFFSET 0.000000 -19.190928 -1.224953 
				CHANNELS 3 Xrotation Yrotation Zrotation
				End Site
				{
					OFFSET 0.000000 -2.449906 4.627600 
				}
			}
		}
	}
}
MOTION
Frames: 15
Frame Time: 0.033333
-3.891439 51.891945 64.274452 1.933594 1.044922 -11.220525 41.712341 -8.436095 -0.766917 -12.626954 6.044922 2.128906 51.063168 8.107644 2.471410 -42.958988 -1.191406 -12.080080 2.000000 -2.000000 0.000000 -78.779297 18.662111 -8.720703 -55.679466 -1.630574 -2.180081 6.607916 41.460194 0.242643 -2.000000 2.000000 0.000000 71.240234 -13.164063 12.138672 57.397358 1.315762 -2.149778 -77.190536 -49.728161 35.184780 -11.268821 12.020274 11.020953 23.521885 -4.789788 -2.198938 -1.817788 -2.561567 -1.155065 -7.645338 -11.423562 -5.085110 21.592285 4.832048 1.542238 -7.686637 -5.636834 6.049513 
-3.560592 51.915588 64.584335 1.933594 1.044922 -11.220525 40.780266 -9.167873 -0.514084 -12.626954 6.044922 2.304688 51.063168 8.107644 2.471410 -42.421879 -1.220703 -12.617189 2.000000 -2.000000 0.000000 -78.447266 18.251955 -9.391470 -55.855267 -1.620825 -2.180650 6.526652 41.283909 0.848571 -2.000000 2.000000 0.000000 71.328125 -12.919922 12.070312 57.045509 1.324943 -2.139465 -77.061203 -51.672241 35.423347 -10.864044 11.603395 11.272641 23.878313 -4.853406 -2.250711 -2.220153 -2.545680 -1.096085 -7.029162 -11.841289 -4.781346 20.894745 4.862615 1.469873 -7.504554 -5.772423 6.208017 
-3.263024 51.915588 64.892967 2.109375 1.201172 -11.200967 39.701004 -9.804728 -0.404872 -12.451172 6.210938 2.373047 51.063168 8.107644 2.471410 -41.894535 -1.113281 -13.300824 2.000000 -2.000000 0.000000 -78.378906 18.232424 -9.541017 -56.195770 -1.422434 -2.133552 6.403690 41.546848 0.834514 -2.000000 2.000000 0.000000 72.021484 -14.072265 10.781250 57.045769 1.335261 -2.148644 -76.231094 -52.359386 34.687881 -10.517494 11.103345 11.121969 23.361275 -4.798717 -2.168274 -2.670976 -2.362362 -1.170275 -6.363943 -12.082049 -5.367580 20.356421 4.637430 1.875719 -7.410089 -5.332475 6.250595 
-3.010587 51.899826 65.201706 2.109375 1.201172 -11.025187 38.927612 -10.399443 -0.017787 -12.451172 6.210938 2.373047 51.063168 8.107644 2.471410 -41.181637 -0.976562 -14.170091 2.000000 -2.000000 0.000000 -78.251953 18.730469 -9.433594 -56.546204 -1.273357 -2.093356 6.109715 41.379128 0.382355 -2.000000 2.000000 0.000000 73.378906 -15.722656 8.073526 57.045769 1.335261 -2.148644 -75.046509 -52.476665 33.859665 -10.015400 10.599226 10.686262 23.155228 -4.872784 -2.223407 -3.214232 -2.108875 -1.364490 -6.081246 -12.482573 -5.373513 20.368538 4.813662 1.875601 -7.981972 -5.209951 6.678133 
-2.815128 51.891945 65.512054 2.265625 1.386719 -10.683595 38.201740 -10.850132 0.070309 -12.275390 6.191407 2.393632 51.063168 8.107644 2.471410 -40.625004 -0.693359 -14.804688 2.000000 -2.000000 0.000000 -78.144531 19.423828 -8.932298 -56.898033 -1.273925 -2.103101 6.377830 41.370914 0.217226 -2.000000 2.000000 0.000000 74.326172 -17.285156 5.622098 57.222065 1.346146 -2.167567 -73.864586 -52.094109 32.897530 -9.549533 10.281275 10.929903 23.167068 -4.863389 -2.222476 -4.656394 -2.767528 -0.862060 -5.701503 -12.983038 -5.220125 20.368832 4.882418 1.410061 -8.229403 -5.244717 7.097157 
-2.688487 51.899826 65.825058 2.460938 1.572266 -10.302466 37.630398 -11.153704 0.265626 -12.275390 6.191407 2.393632 51.063168 8.107644 2.471410 -40.087891 -0.546875 -15.498165 2.000000 -2.000000 0.000000 -78.652344 19.960938 -9.394529 -57.086876 -1.574350 -2.222475 6.607916 41.460194 0.242643 -2.000000 2.000000 0.000000 75.019531 -18.222656 3.834838 57.573906 1.336965 -2.177880 -72.894531 -51.518196 31.888842 -9.166569 9.887270 10.747460 22.288898 -4.915938 -2.100543 -4.989524 -2.723532 -1.234543 -5.350061 -13.333801 -5.607400 20.190996 4.891618 1.241379 -8.557086 -5.227833 6.849409 
-2.642535 51.915588 66.142372 2.636719 1.728502 -9.941189 37.442417 -11.598600 0.364178 -12.275390 6.191407 2.393632 51.063168 8.107644 2.471410 -39.882813 -0.400390 -15.996079 2.000000 -2.000000 0.000000 -78.974609 20.527344 -10.152823 -56.911079 -1.584099 -2.221906 6.624236 41.655617 0.261350 -2.000000 2.000000 0.000000 75.058594 -18.623049 3.170710 58.101543 1.318034 -2.188760 -72.866173 -50.526093 31.438156 -8.923250 9.625041 10.294624 21.772629 -4.844000 -2.074157 -5.290150 -2.954321 -1.321901 -4.823711 -13.532956 -6.387237 19.663660 4.839235 1.685782 -8.745554 -5.342863 6.931355 
-2.646886 51.947094 66.460587 2.978516 1.914063 -9.414062 37.251526 -11.822152 0.403530 -12.089844 6.181641 2.402344 51.063168 8.107644 2.471410 -39.716797 -0.410156 -16.347658 2.000000 -2.000000 0.000000 -79.433594 20.898439 -10.650812 -56.723392 -1.413253 -2.143866 6.389120 42.044823 0.454104 -2.000000 2.000000 0.000000 74.716797 -18.623047 2.575006 58.629189 1.289355 -2.200207 -72.577454 -49.068233 30.281837 -8.435834 9.372188 10.481656 21.778204 -4.837183 -2.248802 -5.936097 -3.292590 -1.341425 -4.443024 -13.853951 -6.760740 19.319359 4.851659 1.630444 -9.281621 -5.408896 7.026926 
-2.663017 51.954975 66.775795 3.164063 2.099610 -8.847298 37.043724 -12.150743 0.610027 -12.099610 6.015625 2.177735 51.063168 8.107644 2.471410 -39.726563 -0.585938 -16.386845 2.000000 -2.000000 0.000000 -79.931641 21.152342 -12.080077 -56.558987 -1.582964 -2.202415 6.782151 42.379292 0.963507 -2.000000 2.000000 0.000000 74.316406 -18.457031 2.529297 59.344795 1.451585 -2.298334 -72.171661 -47.604053 29.289600 -8.398024 9.110547 9.797607 21.069822 -4.945213 -2.013585 -5.932808 -3.542076 -1.653669 -4.013645 -13.953030 -7.339486 18.960949 4.871911 1.623235 -9.420350 -5.387745 6.839299 
-2.690501 51.947094 67.088356 3.496094 2.275391 -8.290628 37.038116 -12.368567 0.661897 -12.099610 6.015625 2.177735 51.063168 8.107644 2.471410 -39.921879 -0.742188 -16.054689 2.000000 -2.000000 0.000000 -80.185547 21.523438 -12.672198 -56.195976 -1.461999 -2.141022 6.301139 42.503307 1.287953 -2.000000 2.000000 0.000000 73.740234 -18.066406 2.119140 59.872688 1.442971 -2.318392 -72.255058 -46.619019 28.731461 -8.299405 8.982187 9.436603 20.551317 -4.974183 -1.965470 -5.984450 -3.473409 -1.603862 -3.593266 -14.222357 -7.895145 18.963234 4.862651 1.621860 -9.638221 -5.429053 7.214014 
-2.728907 51.939217 67.398590 3.867188 2.617188 -7.724164 37.051388 -12.509852 0.563028 -12.109376 5.849610 1.953125 51.063168 8.107644 2.471410 -39.931641 -0.908203 -15.742191 2.000000 -2.000000 0.000000 -80.664063 22.255859 -13.144529 -56.031342 -1.601894 -2.191533 5.715852 42.949295 1.226350 -2.000000 2.000000 0.000000 73.388672 -17.578125 1.608379 60.390831 1.424607 -2.339259 -71.773972 -46.140728 28.348083 -8.066449 8.603523 9.292182 20.180281 -4.922365 -1.955467 -6.052614 -4.263720 -1.773965 -3.339493 -14.327905 -8.634183 18.780283 4.870598 1.589149 -10.150171 -5.350396 6.957582 
-2.777820 51.939217 67.706749 4.042969 2.792969 -7.021484 37.222057 -12.727644 0.614839 -12.109376 5.849610 1.953125 51.063168 8.107644 2.471410 -40.117191 -1.064453 -15.595702 2.000000 -2.000000 0.000000 -80.576172 22.968752 -12.841797 -55.666718 -1.311216 -2.071591 4.102902 43.069237 0.544366 -2.000000 2.000000 0.000000 73.144531 -16.884766 1.005860 60.918736 1.406243 -2.359881 -71.671227 -46.115265 28.541981 -7.998107 8.222712 9.293609 20.542040 -4.902949 -2.118439 -6.826655 -4.607843 -1.482680 -2.929616 -14.582396 -9.202456 18.613058 4.872782 1.730666 -10.514425 -5.535810 6.999235 
-2.836802 51.915588 68.013062 4.384766 3.154297 -6.435009 37.194374 -12.816711 0.769178 -11.953126 5.673828 1.738281 51.063168 8.107644 2.471410 -40.117191 -0.898438 -15.566406 2.000000 -2.000000 0.000000 -80.214844 23.662111 -12.437485 -55.490406 -1.310079 -2.052099 2.693314 43.231445 -0.081748 -2.000000 2.000000 0.000000 72.705078 -16.230469 0.126953 60.920643 1.566765 -2.428799 -71.193825 -46.088039 28.769936 -8.046880 8.085910 9.136858 20.370619 -4.902894 -2.123315 -6.863162 -4.862793 -1.448923 -2.763807 -14.826200 -9.951586 18.624235 4.868496 1.731664 -10.870502 -5.744649 7.244730 
-2.905434 51.899826 68.317734 4.746094 3.320313 -5.693359 37.194374 -12.816711 0.769178 -11.953126 5.673828 1.738281 51.063168 8.107644 2.471410 -39.882813 -0.400390 -15.644516 2.000000 -2.000000 0.000000 -80.478516 24.228516 -12.466697 -55.314610 -1.319828 -2.051530 2.443906 43.504444 0.069650 -2.000000 2.000000 0.000000 72.246094 -15.683595 -0.195312 60.920643 1.566765 -2.428799 -70.851387 -46.382103 28.518354 -8.167564 7.804600 8.451735 19.996132 -4.980664 -1.929798 -6.509005 -5.097352 -1.419302 -2.315061 -15.045307 -10.702412 18.448908 4.881421 1.728820 -11.421378 -5.543177 7.123619 
-2.983278 51.868317 68.621269 5.097657 3.496094 -4.950576 37.165745 -12.896661 0.926935 -11.953126 5.507813 1.513672 51.063168 8.107644 2.471410 -40.039063 -0.039063 -15.751955 2.000000 -2.000000 0.000000 -80.429688 24.560547 -12.222502 -55.140182 -1.488973 -2.100334 3.178846 43.740334 0.589426 -2.000000 2.000000 0.000000 71.621094 -15.166017 -0.830078 60.918751 1.396494 -2.360447 -71.006088 -46.851467 29.039457 -8.128393 7.472893 7.747438 19.661833 -4.989644 -1.893790 -6.622591 -4.853912 -1.679391 -2.070617 -15.108726 -11.432769 18.287693 4.879354 1.714878 -11.560378 -5.566405 6.880068 
